<?xml version="1.0" encoding="UTF-8"?>
<!DOCTYPE svg PUBLIC "-//W3C//DTD SVG 1.1//EN" "http://www.w3.org/Graphics/SVG/1.1/DTD/svg11.dtd">
<svg xmlns="http://www.w3.org/2000/svg" version="1.1" width="150px" height="58px" style="shape-rendering:geometricPrecision; text-rendering:geometricPrecision; image-rendering:optimizeQuality; fill-rule:evenodd; clip-rule:evenodd" xmlns:xlink="http://www.w3.org/1999/xlink">
<g><path style="opacity:1" fill="#0a95bd" d="M 79.5,-0.5 C 84.5,-0.5 89.5,-0.5 94.5,-0.5C 101.286,2.78798 106.286,7.95465 109.5,15C 117.891,15.8968 122.891,20.3968 124.5,28.5C 132.867,29.0114 141.201,29.678 149.5,30.5C 149.5,30.8333 149.5,31.1667 149.5,31.5C 141.584,33.018 133.584,33.6847 125.5,33.5C 125.5,34.8333 125.5,36.1667 125.5,37.5C 128.254,37.7845 130.92,38.4512 133.5,39.5C 130.305,40.8653 126.972,41.8653 123.5,42.5C 122.833,43.8333 122.167,45.1667 121.5,46.5C 122.025,47.1924 122.692,47.6924 123.5,48C 115.853,51.0047 107.853,52.1713 99.5,51.5C 102.512,45.9956 107.179,43.1622 113.5,43C 118.63,38.7823 119.796,33.6157 117,27.5C 113.189,24.0586 108.689,22.0586 103.5,21.5C 101.13,10.6582 94.4635,5.65815 83.5,6.5C 83.5,5.83333 83.1667,5.5 82.5,5.5C 82.5,4.83333 82.1667,4.5 81.5,4.5C 81.5,3.83333 81.1667,3.5 80.5,3.5C 80.1667,3.5 79.8333,3.5 79.5,3.5C 79.5,2.83333 79.1667,2.5 78.5,2.5C 78.5569,1.39105 78.8902,0.391047 79.5,-0.5 Z"/></g>
<g><path style="opacity:0.999" fill="#2884bc" d="M 80.5,4.5 C 80.8333,4.5 81.1667,4.5 81.5,4.5C 82.1667,4.5 82.5,4.83333 82.5,5.5C 83.1667,5.5 83.5,5.83333 83.5,6.5C 85.9605,10.0959 87.2939,14.0959 87.5,18.5C 91.6073,18.1229 95.274,19.1229 98.5,21.5C 99.4404,24.7143 100.94,27.7143 103,30.5C 104.872,37.4033 102.872,42.7366 97,46.5C 93.918,45.4912 93.918,44.1578 97,42.5C 96.9192,40.0148 97.0859,37.6815 97.5,35.5C 97.7373,34.209 97.404,33.209 96.5,32.5C 95.2353,28.4442 92.402,26.4442 88,26.5C 86.9302,26.528 86.0968,26.8614 85.5,27.5C 85.1667,27.5 84.8333,27.5 84.5,27.5C 83.8333,27.5 83.5,27.8333 83.5,28.5C 83.1667,28.5 82.8333,28.5 82.5,28.5C 81.5,28.1667 80.8333,27.5 80.5,26.5C 82.1172,25.962 83.7839,25.6287 85.5,25.5C 87.3511,14.193 82.8511,6.8597 72,3.5C 71.5,3.83333 71,4.16667 70.5,4.5C 72.1667,6.5 73.8333,8.5 75.5,10.5C 74.7542,11.7362 74.4208,13.0695 74.5,14.5C 69.9202,12.6461 65.2536,11.9795 60.5,12.5C 63.421,10.9106 66.421,9.41065 69.5,8C 68.552,7.51722 67.552,7.35055 66.5,7.5C 66.6107,6.88258 66.944,6.38258 67.5,6C 65.0481,5.71047 62.7148,5.0438 60.5,4C 64.5194,1.66225 68.8527,0.99558 73.5,2C 75.5692,3.52344 77.9026,4.35677 80.5,4.5 Z"/></g>
<g><path style="opacity:1" fill="#1479b5" d="M 57.5,-0.5 C 62.5,-0.5 67.5,-0.5 72.5,-0.5C 74.4261,0.486147 76.4261,1.48615 78.5,2.5C 79.1667,2.5 79.5,2.83333 79.5,3.5C 79.8333,3.5 80.1667,3.5 80.5,3.5C 80.5,3.83333 80.5,4.16667 80.5,4.5C 77.9026,4.35677 75.5692,3.52344 73.5,2C 68.8527,0.99558 64.5194,1.66225 60.5,4C 62.7148,5.0438 65.0481,5.71047 67.5,6C 66.944,6.38258 66.6107,6.88258 66.5,7.5C 61.2805,7.29378 56.9472,9.12712 53.5,13C 50.5184,13.498 47.5184,13.6646 44.5,13.5C 44.5,12.5 44.5,11.5 44.5,10.5C 47.9515,5.70911 52.2848,2.04244 57.5,-0.5 Z"/></g>
<g><path style="opacity:1" fill="#3a95cc" d="M 80.5,26.5 C 80.6111,21.3887 78.6111,17.3887 74.5,14.5C 74.4208,13.0695 74.7542,11.7362 75.5,10.5C 73.8333,8.5 72.1667,6.5 70.5,4.5C 71,4.16667 71.5,3.83333 72,3.5C 82.8511,6.8597 87.3511,14.193 85.5,25.5C 83.7839,25.6287 82.1172,25.962 80.5,26.5 Z"/></g>
<g><path style="opacity:0.718" fill="#4e94c6" d="M 44.5,10.5 C 44.5,11.5 44.5,12.5 44.5,13.5C 44.5,14.8333 44.5,16.1667 44.5,17.5C 47.5,17.5 50.5,17.5 53.5,17.5C 53.5,20.8333 53.5,24.1667 53.5,27.5C 50.4816,27.6646 47.4816,27.498 44.5,27C 43.6198,25.6439 43.2865,24.1439 43.5,22.5C 39.8333,22.5 36.1667,22.5 32.5,22.5C 32.5,24.5 32.5,26.5 32.5,28.5C 29.8333,28.5 27.1667,28.5 24.5,28.5C 24.5,26.5 24.5,24.5 24.5,22.5C 26.1347,21.1854 27.8014,21.1854 29.5,22.5C 30.9185,21.9953 31.5852,20.9953 31.5,19.5C 31.5,18.8333 31.5,18.1667 31.5,17.5C 31.5,15.5 31.5,13.5 31.5,11.5C 35.6344,10.5151 39.9677,10.1818 44.5,10.5 Z"/></g>
<g><path style="opacity:0.635" fill="#26537d" d="M 31.5,11.5 C 31.5,13.5 31.5,15.5 31.5,17.5C 30.1667,18.1667 30.1667,18.8333 31.5,19.5C 31.5852,20.9953 30.9185,21.9953 29.5,22.5C 27.8014,21.1854 26.1347,21.1854 24.5,22.5C 23.1667,22.5 21.8333,22.5 20.5,22.5C 17.9223,21.7459 15.2556,21.7459 12.5,22.5C 11.0597,23.3629 9.72641,23.3629 8.5,22.5C 7.26133,22.9424 6.26133,23.6091 5.5,24.5C 4.16667,24.5 2.83333,24.5 1.5,24.5C 1.15829,23.6618 0.491622,23.3284 -0.5,23.5C -0.5,21.1667 -0.5,18.8333 -0.5,16.5C 2.72104,13.2083 6.72104,11.5416 11.5,11.5C 12.2811,12.7287 12.7811,14.062 13,15.5C 18.0441,14.8556 23.2108,14.8556 28.5,15.5C 28.0882,13.0274 29.0882,11.6941 31.5,11.5 Z M 4.5,17.5 C 9.68757,17.968 9.68757,18.968 4.5,20.5C 3.43764,19.5754 3.43764,18.5754 4.5,17.5 Z"/></g>
<g><path style="opacity:0.588" fill="#177dbd" d="M 20.5,22.5 C 20.5,24.5 20.5,26.5 20.5,28.5C 17.8333,28.5 15.1667,28.5 12.5,28.5C 12.5,30.8333 12.5,33.1667 12.5,35.5C 14.8333,35.5 17.1667,35.5 19.5,35.5C 19.5,33.5 19.5,31.5 19.5,29.5C 22.1667,29.5 24.8333,29.5 27.5,29.5C 29.2382,35.9271 26.9049,38.5938 20.5,37.5C 20.5,39.5 20.5,41.5 20.5,43.5C 17.8333,43.5 15.1667,43.5 12.5,43.5C 12.6633,41.1432 12.4966,38.8098 12,36.5C 7.83403,37.8032 3.66737,37.8032 -0.5,36.5C -0.5,32.5 -0.5,28.5 -0.5,24.5C 0.166667,24.5 0.833333,24.5 1.5,24.5C 2.83333,24.5 4.16667,24.5 5.5,24.5C 8.38779,25.0102 10.7211,24.3435 12.5,22.5C 15.2556,21.7459 17.9223,21.7459 20.5,22.5 Z"/></g>
<g><path style="opacity:1" fill="#0d79ba" d="M 31.5,29.5 C 34.1667,29.5 36.8333,29.5 39.5,29.5C 39.5,32.1667 39.5,34.8333 39.5,37.5C 36.8333,37.5 34.1667,37.5 31.5,37.5C 31.5,34.8333 31.5,32.1667 31.5,29.5 Z"/></g>
<g><path style="opacity:0.982" fill="#2c5f8d" d="M 84.5,27.5 C 84.8333,27.5 85.1667,27.5 85.5,27.5C 90.4932,29.5381 90.8265,32.3714 86.5,36C 86.8333,36.1667 87.1667,36.3333 87.5,36.5C 89.6572,34.5879 91.9906,32.9213 94.5,31.5C 95.1835,31.8627 95.8501,32.1961 96.5,32.5C 96.5,33.5 96.5,34.5 96.5,35.5C 94.9731,35.427 93.9731,36.0937 93.5,37.5C 91.1169,39.3582 88.4502,40.6916 85.5,41.5C 83.901,41.7678 82.5676,41.4345 81.5,40.5C 80.9101,39.234 80.4101,37.9007 80,36.5C 78.6032,38.0703 77.1032,39.4036 75.5,40.5C 73.5441,38.8516 71.2108,38.1849 68.5,38.5C 68.2627,37.209 68.596,36.209 69.5,35.5C 70.2506,36.5735 71.2506,36.7401 72.5,36C 75.8018,33.1627 79.1351,30.6627 82.5,28.5C 82.8333,28.5 83.1667,28.5 83.5,28.5C 84.1667,28.5 84.5,28.1667 84.5,27.5 Z M 81.5,40.5 C 79.5,40.5 77.5,40.5 75.5,40.5C 77.1032,39.4036 78.6032,38.0703 80,36.5C 80.4101,37.9007 80.9101,39.234 81.5,40.5 Z"/></g>
<g><path style="opacity:0.703" fill="#2e6999" d="M 69.5,35.5 C 68.596,36.209 68.2627,37.209 68.5,38.5C 71.2108,38.1849 73.5441,38.8516 75.5,40.5C 77.5,40.5 79.5,40.5 81.5,40.5C 82.5676,41.4345 83.901,41.7678 85.5,41.5C 85.5,41.8333 85.5,42.1667 85.5,42.5C 77.3517,41.2404 69.0184,41.2404 60.5,42.5C 59.0101,44.2798 57.0101,44.9465 54.5,44.5C 55.6085,43.71 56.9419,43.21 58.5,43C 56.4039,41.0659 55.4039,38.5659 55.5,35.5C 55.7279,29.1638 56.7279,22.9971 58.5,17C 60.1124,16.2797 61.6124,16.4464 63,17.5C 63.0414,24.0128 62.5414,30.5128 61.5,37C 61.8333,38.5 62.1667,40 62.5,41.5C 64.3025,40.4061 64.6359,38.7394 63.5,36.5C 63.893,29.755 67.2263,26.755 73.5,27.5C 74.3482,29.4086 74.6816,31.4086 74.5,33.5C 72.2188,33.0773 70.5521,33.744 69.5,35.5 Z"/></g>
<g><path style="opacity:0.82" fill="#1772ac" d="M 98.5,21.5 C 108.099,31.2556 107.765,40.7556 97.5,50C 98.0442,50.7172 98.7109,51.2172 99.5,51.5C 98.8333,52.1667 98.1667,52.8333 97.5,53.5C 96.1667,52.8333 94.8333,52.1667 93.5,51.5C 93.5,50.8333 93.1667,50.5 92.5,50.5C 92.1667,50.5 91.8333,50.5 91.5,50.5C 91.1583,49.6618 90.4916,49.3284 89.5,49.5C 89.1667,49.5 88.8333,49.5 88.5,49.5C 88.5,49.1667 88.5,48.8333 88.5,48.5C 89.552,48.6495 90.552,48.4828 91.5,48C 89.3645,47.1237 88.0312,45.6237 87.5,43.5C 91.1285,43.205 93.1285,41.205 93.5,37.5C 93.9731,36.0937 94.9731,35.427 96.5,35.5C 96.8333,35.5 97.1667,35.5 97.5,35.5C 97.0859,37.6815 96.9192,40.0148 97,42.5C 93.918,44.1578 93.918,45.4912 97,46.5C 102.872,42.7366 104.872,37.4033 103,30.5C 100.94,27.7143 99.4404,24.7143 98.5,21.5 Z"/></g>
<g><path style="opacity:1" fill="#0d76b3" d="M 85.5,42.5 C 86.4916,42.3284 87.1583,42.6618 87.5,43.5C 88.0312,45.6237 89.3645,47.1237 91.5,48C 90.552,48.4828 89.552,48.6495 88.5,48.5C 87.8333,48.5 87.1667,48.5 86.5,48.5C 85.5,48.5 84.5,48.5 83.5,48.5C 78.8333,45.8333 74.1667,45.8333 69.5,48.5C 68.391,48.5569 67.391,48.8902 66.5,49.5C 65.8333,48.1667 65.1667,48.1667 64.5,49.5C 64.1667,49.5 63.8333,49.5 63.5,49.5C 62.5084,49.3284 61.8417,49.6618 61.5,50.5C 58.4061,51.2134 55.4061,52.2134 52.5,53.5C 51.209,53.2627 50.209,53.596 49.5,54.5C 46.5176,54.9629 43.5176,55.2962 40.5,55.5C 36.1539,55.6657 31.8206,55.499 27.5,55C 33.8333,53.3333 40.1667,51.6667 46.5,50C 48.751,49.2525 50.0844,47.7525 50.5,45.5C 51.8333,45.1667 53.1667,44.8333 54.5,44.5C 57.0101,44.9465 59.0101,44.2798 60.5,42.5C 69.0184,41.2404 77.3517,41.2404 85.5,42.5 Z M 83.5,48.5 C 78.8333,48.5 74.1667,48.5 69.5,48.5C 74.1667,45.8333 78.8333,45.8333 83.5,48.5 Z"/></g>
<g><path style="opacity:0.717" fill="#498abb" d="M 41.5,48.5 C 40.5084,48.3284 39.8417,48.6618 39.5,49.5C 38.209,49.2627 37.209,49.596 36.5,50.5C 35.5084,50.3284 34.8417,50.6618 34.5,51.5C 33.5,51.5 32.5,51.5 31.5,51.5C 30.8333,51.5 30.5,51.8333 30.5,52.5C 27.8333,52.5 25.1667,52.5 22.5,52.5C 18.6596,51.3352 15.6596,49.0018 13.5,45.5C 13.8333,45.1667 14.1667,44.8333 14.5,44.5C 23.9309,49.6593 33.4309,49.6593 43,44.5C 43.5,44.8333 44,45.1667 44.5,45.5C 43.2299,46.2876 42.2299,47.2876 41.5,48.5 Z"/></g>
<g><path style="opacity:0.962" fill="#4e95c6" d="M 69.5,48.5 C 74.1667,48.5 78.8333,48.5 83.5,48.5C 84.5,48.5 85.5,48.5 86.5,48.5C 86.8417,49.3382 87.5084,49.6716 88.5,49.5C 88.8333,49.5 89.1667,49.5 89.5,49.5C 89.8417,50.3382 90.5084,50.6716 91.5,50.5C 91.8333,50.5 92.1667,50.5 92.5,50.5C 93.1667,50.5 93.5,50.8333 93.5,51.5C 94.8333,52.1667 96.1667,52.8333 97.5,53.5C 98.7514,54.472 98.418,55.1386 96.5,55.5C 81.2668,51.7987 66.2668,52.4653 51.5,57.5C 49.8333,57.5 48.1667,57.5 46.5,57.5C 47.3065,56.2719 48.3065,55.2719 49.5,54.5C 50.791,54.7373 51.791,54.404 52.5,53.5C 55.4061,52.2134 58.4061,51.2134 61.5,50.5C 62.4916,50.6716 63.1583,50.3382 63.5,49.5C 63.8333,49.5 64.1667,49.5 64.5,49.5C 65.1667,49.5 65.8333,49.5 66.5,49.5C 67.391,48.8902 68.391,48.5569 69.5,48.5 Z"/></g>
<g><path style="opacity:0.763" fill="#0f6da7" d="M -0.5,40.5 C 5.25611,47.8805 12.9228,51.8805 22.5,52.5C 25.1667,52.5 27.8333,52.5 30.5,52.5C 31.1667,52.5 31.5,52.1667 31.5,51.5C 32.5,51.5 33.5,51.5 34.5,51.5C 35.4916,51.6716 36.1583,51.3382 36.5,50.5C 37.791,50.7373 38.791,50.404 39.5,49.5C 40.4916,49.6716 41.1583,49.3382 41.5,48.5C 44.7146,48.0951 47.7146,47.0951 50.5,45.5C 50.0844,47.7525 48.751,49.2525 46.5,50C 40.1667,51.6667 33.8333,53.3333 27.5,55C 31.8206,55.499 36.1539,55.6657 40.5,55.5C 31.2804,56.897 21.947,56.7304 12.5,55C 6.70629,52.7001 2.37295,48.8668 -0.5,43.5C -0.5,42.5 -0.5,41.5 -0.5,40.5 Z"/></g>
</svg>
